<svg id="Livello_1" data-name="Livello 1" xmlns="http://www.w3.org/2000/svg" viewBox="0 0 228.22 223.68"><defs><style>.cls-1{fill:#241e2f;}</style></defs><path class="cls-1" d="M48.07,122.19a11.54,11.54,0,0,1,0-2.35c.95-5.12.1-6.15-4.69-5-2.77.65-5.44,1.76-8.18,2.6-1.77.55-3.58,1-5.38,1.46,4.57-2.93,9.36-5.8,14.38-6.38,6.08-.71,10.62-4.42,16.16-6.31l-4.29-5.84c1.75.33,2.75,1.46,3.95,2.24A73.72,73.72,0,0,0,68,107a1.24,1.24,0,0,0,.67.19c.62-.06.79-.9.7-1.52-.4-3-3.05-6.17-4.46-8.8q-2.7-5-5.45-10a41.93,41.93,0,0,0-8.36-10.82c-1.42-1.27-3.06-2-4.54-3.26-.72-.58-4.36-4.43-5.16-4.23a.81.81,0,0,0,.52-.89,2.39,2.39,0,0,0-.48-1c-2.53-3.72-3.84-8-6.15-11.86C34.2,52.94,33.73,50,32.2,49.23s-3.83.64-5.79,1.15c-8.27,2.15-16.69-1.65-20.88-9.66.1.18,8.6-3.19,9.55-3.33,6-.88,12.39,4.26,16.46,8.73C30,41.29,27.81,36.8,26.45,31.91A12.81,12.81,0,0,0,22,24.63c-5.57-4.44-7.77-10.83-7.14-18.21.22-2.61.83-5.16,3.37-6.42a20.54,20.54,0,0,1,8.58,20.91c-.46,2.52-1.76,4.87-.36,7.62A63.53,63.53,0,0,1,29.15,36a3.09,3.09,0,0,0,1.07-2.42A17.2,17.2,0,0,1,44.39,15.27c3.18-.51,4,.11,4.75,3.52,1.58,7.09-1.93,15.79-8,19.17-2.92,1.61-6.13,2.6-9.54,4,2.18,5.49,3.84,11.08,8,15.79,2.13-11.65,9-18.07,18.65-18.12.56,8.76-3.08,15-10.51,17.91-2.28.88-4.64,1.51-7.17,2.31.15-.05,10.08,12.52,11.22,13.69,2.06,2.12,4.2,4.18,6.36,6.2s3.33,4.32,5.27,6.52c.43.5,1.14,1,1.69.64a1.48,1.48,0,0,0,.48-.9c.76-2.9,2-5.39,2.28-8.46.18-2.05,1.16-8.06.2-9.8a16.24,16.24,0,0,1,1.09,14.45c-1.84,5.17-1.24,10.15,1.35,15.13a49.26,49.26,0,0,0,10,13.16c4.68,4.42,9.55,8.63,14.38,12.88a10.66,10.66,0,0,0,7.91,3.11c-1.37-3.77-2.85-6.86-3.64-10.14-3.48-14.54-3.4-28.77,2.94-42.65a95.52,95.52,0,0,0,5.17-16.06c1.32-5.17.42-10.2-3.35-14A30.17,30.17,0,0,0,97.23,39,27.11,27.11,0,0,0,91.91,37c-1.8-.57-3.65-.94-5.47-1.39a29.47,29.47,0,0,1,10.67-2.15c4.14-.07,7.17-1.38,9.31-5.52a19.48,19.48,0,0,1,5.91-7.22,28.44,28.44,0,0,1,23.46-4c7.24,1.85,13.06,6.22,18.07,12A143,143,0,0,1,170.5,52.39c7.84,13.94,14.71,28.28,17,44.66,2.11,15.16-1.38,28.94-8.78,41.7a18.75,18.75,0,0,1-6.2,6c-6.21,3.93-5.89,2.06-3.44,10.09a16.59,16.59,0,0,0,1.36,2.65c2.92,5.67,5.78,11.37,8.81,17a7.48,7.48,0,0,0,2.79,2.71c4.28,2.48,8.65,4.8,13,7.17,3.51-8.43,3.56-8.46,9.52-6a47,47,0,0,0-1.11,5.32c-.86,8.88,1.51,16.4,8.58,21.66a19.74,19.74,0,0,0,11.77,4c2.84,0,3.66,1.38,3.92,3.87.08.81.05,1.63.15,2.43.34,2.6,1.08,5.44-1.35,7.25s-4.78.1-6.94-1c-9.65-5.06-18.1-11.65-24.75-20.9a58.61,58.61,0,0,0-11.13-12c-4-3.13-8.69-6.57-14.15-2.45-.2.15-.7-.16-1.05-.26.49-3.93.49-3.93-2.37-4.8a12.15,12.15,0,0,1-1.57-.55c-7.56-3.58-15.11-7.18-22.92-10.91-.57,4.5-1,8.52-1.6,12.48-.67,4.15-2.79,6.89-6.29,6.43s-5.64,1.4-8.31,2.73c-3.07,1.53-6.27,3.25-9.36-.36-.53-.62-2-.56-3-.42s-1.67.94-2.57,1.23c-1.74.57-3-.55-2.64-2.55,2.06-11.81,9.07-22.32,13.82-33.23.69-1.58,1.76-3.28.11-5-6.86-7.18-12.68-15.62-22.22-19.41A45.5,45.5,0,0,1,80.18,117.4a13.46,13.46,0,0,0-4.94-3.91c-3.48-1.55-7.17-2.6-10.77-3.84a8.37,8.37,0,0,0-9,2.21c-2.16,2.16-3.79,4.94-5.64,7.46-.66.91-1.27,1.87-1.9,2.8Zm115.35,30.33a2.18,2.18,0,0,0-.53-.17,9.09,9.09,0,0,0-3.24.18c-3.51.62-12.05.45-14.43,3.33a9.49,9.49,0,0,0-1.32,2.5,5.68,5.68,0,0,0-.59,2.78c.25,1.9,6.3,4.36,8,5.35a77,77,0,0,0,10.51,5c4.2,1.65,7.46-.8,7.55-5.63a19,19,0,0,0-.55-3.67C168.45,159.75,166.14,153.7,163.42,152.52Z"/><path class="cls-1" d="M32.07,70.07c-1-.85-2.27-2-3.6-3.09-4.71-3.86-9.79-4.54-15.5-2.76-5,1.55-9,4-11.7,8.86C-.84,76.93-.44,78.16,3.4,79.93c9.65,4.47,20.07,1.36,26.65-7.86A10.92,10.92,0,0,1,32.07,70.07Z"/><path class="cls-1" d="M187.77,193.53c-.7-.51-1.61-1.2-2.55-1.85-3.33-2.3-7-2.57-11.29-1.25-3.7,1.14-6.78,2.86-8.88,6-1.67,2.51-1.41,3.28,1.35,4.29,6.94,2.53,14.69.22,19.82-5.86A8.61,8.61,0,0,1,187.77,193.53Z"/><path class="cls-1" d="M188.78,199.63a11.24,11.24,0,0,0-.3-1.14c-.37-1.15-.95-2.32-.65-3.48a7.64,7.64,0,0,1-2.72,4.69c-.71.56-1.51,1-2.23,1.54a9.81,9.81,0,0,0-3.54,5.95c-.14.59-.83,6.13-.32,6.06A11.63,11.63,0,0,0,188.78,199.63Z"/><path class="cls-1" d="M194.68,180.47c.49-.89,1.15-2,1.77-3.22,2-3.85,1.45-7.34-.84-10.87-.83-1.28-7.18-7.62-6.46-9-1.75,3.39-4,9-3.08,12.88C186.89,173.74,191.78,178.73,194.68,180.47Z"/><path class="cls-1" d="M48.07,122.19c-8.61,4.74-10.25,12.07-5.11,22.88,6.77-4.53,8.78-9.9,6.59-17.76-.49-1.75-1.07-3.46-1.61-5.19Z"/><path class="cls-1" d="M31.9,85.75c.43,1.75,1.57,2.25,2.9,1.1,4-3.46,6.9-7.51,5.88-13.49-.16-1-.75-2.16-.41-2.83.89-1.78.29-2.29-1.09-1.53A15.39,15.39,0,0,0,31.9,85.75Z"/></svg>